<svg xmlns="http://www.w3.org/2000/svg" viewBox="0 0 303.45 273.19"><defs><style>.cls-1{isolation:isolate;}.cls-2,.cls-3{fill:#fff;}.cls-3{mix-blend-mode:screen;}</style></defs><g class="cls-1"><g id="Layer_2" data-name="Layer 2"><g id="Layer_1-2" data-name="Layer 1"><polygon class="cls-2" points="43.53 61.28 86.63 18.18 65.08 0 43.53 0 26.35 18.61 24.05 35.51 43.53 61.28"/><polygon class="cls-2" points="26.58 35.48 28.67 20.03 44.83 2.52 64.78 2.52 84.1 18.83 44.17 58.76 26.58 35.48"/><polygon class="cls-2" points="256.73 61.28 213.63 18.18 235.18 0 256.73 0 273.91 18.61 276.2 35.51 256.73 61.28"/><polygon class="cls-3" points="216.15 18.83 235.48 2.52 255.42 2.52 271.58 20.03 273.68 35.48 256.09 58.76 216.15 18.83"/><polygon class="cls-2" points="113.11 22.05 190.15 22.05 151.63 48.11 113.11 22.05"/><polygon class="cls-3" points="119.64 24.26 183.62 24.26 151.63 45.9 119.64 24.26"/><path class="cls-2" d="M94.6,24.34,47.82,70.73,62.53,178.22,98.8,217.54,99.19,132l47-23.67V56.8ZM112.27,116l-5.59,5L92.79,110.39v-.71l15.74-8.59,16.61,13.47Z"/><polygon class="cls-3" points="64.43 177.33 49.94 71.45 94.88 26.88 144.15 57.91 144.15 107.12 128.73 114.89 108.75 98.69 90.79 108.49 90.79 111.38 106.78 123.54 113.12 117.9 125.46 116.53 97.19 130.78 96.82 212.44 64.43 177.33"/><path class="cls-2" d="M207.62,24.34,156.07,56.8v51.55L203,132l.39,85.52,36.27-39.32L254.4,70.73Zm1.81,86.05L195.54,121,190,116l-12.87-1.44,16.61-13.45,15.74,8.59Z"/><polygon class="cls-3" points="205.03 130.78 176.7 116.51 189.1 117.9 195.44 123.54 211.43 111.38 211.43 108.49 193.47 98.69 173.47 114.88 158.07 107.12 158.07 57.91 207.34 26.88 252.28 71.45 237.79 177.33 205.4 212.44 205.03 130.78"/><path class="cls-2" d="M193.25,137l-41.62-20.26L109,137.35v92.42l41,21L195.41,229Zm-7.58,61.65-13.17,18.9-18.29.43v5.82s9.31,4.17,16.32,4.72v1.83H133.16v-1.92L149,223.93l.05-5.84-18,.41-13.93-20.44V191.4l13.93-22h41.24l13.38,23.68Z"/><path class="cls-3" d="M111,228.55V138.61L151.62,119l39.66,19.29,2.1,89.5L150,248.52Zm20.19-1.64v5.43h41.37v-5.68l-1.85-.14c-5.17-.41-11.8-3-14.47-4.05v-2.55l17.35-.41,14.11-20.25v-6.67l-14.21-25.16H130l-14.83,23.39v7.86L130,220.52l17-.39v2.28Z"/><polygon class="cls-2" points="39.23 82.76 52.12 169.43 0 135.45 39.23 82.76"/><polygon class="cls-3" points="2.88 134.94 37.96 87.81 49.49 165.33 2.88 134.94"/><polygon class="cls-2" points="263.36 82.76 303.45 137.74 251.91 169.43 263.36 82.76"/><polygon class="cls-3" points="264.69 87.98 300.56 137.17 254.44 165.53 264.69 87.98"/><polygon class="cls-2" points="9.83 154.93 52.12 182.42 64.86 237.97 106.24 259.88 48.54 243.7 9.83 154.93"/><polygon class="cls-3" points="49.99 242.03 14.33 160.23 50.35 183.65 63.12 239.31 88.81 252.91 49.99 242.03"/><polygon class="cls-2" points="293.12 154.93 250.83 182.42 238.09 237.97 196.71 259.88 254.41 243.7 293.12 154.93"/><polygon class="cls-3" points="239.84 239.31 252.6 183.65 288.62 160.23 252.96 242.03 214.14 252.91 239.84 239.31"/><path class="cls-2" d="M66.72,196.93c0,1.52,32.84,37.6,32.84,37.6l51.07,26.21,54.6-27.06,32.36-36.75-9.5,37-76.24,39.23-77.39-40.8Z"/><path class="cls-3" d="M76.21,231.05l-5.69-26.11c7.09,8.34,19.28,21.85,27.56,30.94l.24.27L150.61,263l55.86-27.69,27.11-30.79-7.2,28.09-74.52,38.35Z"/></g></g></g></svg>