<svg xmlns="http://www.w3.org/2000/svg" xmlns:xlink="http://www.w3.org/1999/xlink" viewBox="0 0 303.45 272.78"><defs><style>.cls-1{isolation:isolate;}.cls-2{fill:url(#linear-gradient);}.cls-10,.cls-11,.cls-12,.cls-3,.cls-4,.cls-5,.cls-6,.cls-7,.cls-8,.cls-9{mix-blend-mode:screen;}.cls-3{fill:url(#linear-gradient-2);}.cls-4{fill:url(#linear-gradient-3);}.cls-5{fill:url(#linear-gradient-4);}.cls-6{fill:url(#linear-gradient-5);}.cls-7{stroke:#000;stroke-miterlimit:10;fill:url(#linear-gradient-6);}.cls-8{fill:url(#linear-gradient-7);}.cls-9{fill:url(#linear-gradient-8);}.cls-10{fill:url(#linear-gradient-9);}.cls-11{fill:url(#linear-gradient-10);}.cls-12{fill:url(#linear-gradient-11);}</style><linearGradient id="linear-gradient" x1="26.58" y1="30.12" x2="84.1" y2="30.12" gradientUnits="userSpaceOnUse"><stop offset="0" stop-color="#fff"/><stop offset="0" stop-color="#fff" stop-opacity="0.96"/><stop offset="0.03" stop-color="#fff" stop-opacity="0.78"/><stop offset="0.05" stop-color="#fff" stop-opacity="0.61"/><stop offset="0.08" stop-color="#fff" stop-opacity="0.47"/><stop offset="0.11" stop-color="#fff" stop-opacity="0.34"/><stop offset="0.14" stop-color="#fff" stop-opacity="0.23"/><stop offset="0.18" stop-color="#fff" stop-opacity="0.15"/><stop offset="0.22" stop-color="#fff" stop-opacity="0.08"/><stop offset="0.27" stop-color="#fff" stop-opacity="0.03"/><stop offset="0.34" stop-color="#fff" stop-opacity="0.01"/><stop offset="0.55" stop-color="#fff" stop-opacity="0"/></linearGradient><linearGradient id="linear-gradient-2" x1="232.08" y1="4.86" x2="268.28" y2="48.01" xlink:href="#linear-gradient"/><linearGradient id="linear-gradient-3" x1="138.41" y1="8.25" x2="164.85" y2="39.75" xlink:href="#linear-gradient"/><linearGradient id="linear-gradient-4" x1="55.91" y1="59.27" x2="148.16" y2="169.21" xlink:href="#linear-gradient"/><linearGradient id="linear-gradient-5" x1="158.56" y1="57.8" x2="253.54" y2="170.99" xlink:href="#linear-gradient"/><linearGradient id="linear-gradient-6" x1="112.42" y1="136.92" x2="190.36" y2="229.81" xlink:href="#linear-gradient"/><linearGradient id="linear-gradient-7" x1="16.06" y1="105.77" x2="59" y2="156.93" xlink:href="#linear-gradient"/><linearGradient id="linear-gradient-8" x1="242.59" y1="106.1" x2="281.64" y2="152.64" xlink:href="#linear-gradient"/><linearGradient id="linear-gradient-9" x1="9.46" y1="163.9" x2="85.87" y2="254.97" xlink:href="#linear-gradient"/><linearGradient id="linear-gradient-10" x1="240.6" y1="193.31" x2="269.49" y2="227.74" xlink:href="#linear-gradient"/><linearGradient id="linear-gradient-11" x1="113.71" y1="168.28" x2="191.73" y2="261.25" xlink:href="#linear-gradient"/></defs><g class="cls-1"><g id="Layer_2" data-name="Layer 2"><g id="Layer_1-2" data-name="Layer 1"><polygon points="43.53 61.28 86.63 18.18 65.08 0 43.53 0 26.35 18.61 24.05 35.51 43.53 61.28"/><polygon class="cls-2" points="26.58 34.96 28.67 19.51 44.83 2 64.78 2 84.1 18.31 44.17 58.24 26.58 34.96"/><polygon points="256.73 61.28 213.63 18.18 235.18 0 256.73 0 273.91 18.61 276.2 35.51 256.73 61.28"/><polygon class="cls-3" points="216.15 18.31 235.48 2 255.42 2 271.58 19.51 273.68 34.96 256.09 58.24 216.15 18.31"/><polygon points="113.11 22 190.15 22 151.63 48.06 113.11 22"/><polygon class="cls-4" points="119.64 24 183.62 24 151.63 45.65 119.64 24"/><path d="M95.25,24.64,48.82,70.69l14.6,106.69,36,39,.39-84.89L146.41,108V56.86Zm16.64,90.92-5.59,5L92.41,110v-.71l15.74-8.59,16.61,13.47Z"/><polygon class="cls-5" points="64.62 176.96 50.12 70.99 95.1 26.38 144.41 57.44 144.41 106.7 129.09 114.42 109.25 98.33 91.41 108.06 91.41 111.56 106.4 122.97 112.35 117.68 123.93 116.4 97.41 129.76 97.04 212.11 64.62 176.96"/><path d="M208,23.85,156.41,56.34v51.58l47,23.69.39,85.58,36.3-39.34L254.81,70.28ZM209.41,110l-13.88,10.56-5.59-5-12.88-1.44,16.61-13.45,15.74,8.59Z"/><polygon class="cls-6" points="205.04 130.32 176.83 116.11 189.18 117.49 195.5 123.11 211.41 111 211.41 108.06 193.57 98.33 173.71 114.41 158.41 106.7 158.41 57.92 207.34 27.11 251.97 71.37 237.58 176.51 205.41 211.38 205.04 130.32"/><path d="M193.7,136.57l-41.63-20.25-42.66,20.61v92.42l41,21,45.45-21.77Zm-8.29,61.64-13,18.9-18,.43v5.91s9.13,4.17,16,4.72V230h-37v-1.92l16-4.49.05-5.93-18.07.41-14-20.43V191l14-22h40.84l13.18,23.69Z"/><path class="cls-7" d="M110.91,228.13V138.19l40.66-19.65,39.66,19.29,2.09,89.5L149.93,248.1Zm20-2.07v5.44h41v-5.68l-1.81-.15c-5.07-.4-11.58-2.95-14.19-4V220l17.65-.41,14.35-20.25v-6.68L173.45,167.5H129.78l-14.87,23.39v7.86l14.93,21.85,17.07-.39v1.36Z"/><polygon points="39.23 82.34 52.12 169.02 0 135.03 39.23 82.34"/><polygon class="cls-8" points="2.88 134.52 37.96 87.4 49.49 164.91 2.88 134.52"/><polygon points="263.36 82.34 303.45 137.32 251.91 169.02 263.36 82.34"/><polygon class="cls-9" points="264.69 87.56 300.56 136.75 254.44 165.11 264.69 87.56"/><polygon points="9.83 154.51 52.12 182 64.86 237.55 106.24 259.46 48.54 243.28 9.83 154.51"/><polygon class="cls-10" points="49.99 241.61 14.33 159.81 50.35 183.23 63.12 238.89 88.81 252.5 49.99 241.61"/><polygon points="293.12 154.51 250.83 182 238.09 237.55 196.71 259.46 254.41 243.28 293.12 154.51"/><polygon class="cls-11" points="239.84 238.89 252.6 183.23 288.62 159.81 252.96 241.61 214.14 252.5 239.84 238.89"/><path d="M66.72,196.51c0,1.52,32.84,37.61,32.84,37.61l51.07,26.2,54.6-27.06,32.36-36.75-9.5,37-76.24,39.24L74.46,232Z"/><path class="cls-12" d="M76.21,230.63l-5.69-26.1c7.09,8.34,19.28,21.84,27.56,30.93l.24.27,52.29,26.83,55.86-27.68,27.11-30.79-7.2,28.09-74.52,38.34Z"/></g></g></g></svg>